<svg width="456.4325439453125px" height="122.021240234375px" xmlns="http://www.w3.org/2000/svg" viewBox="21.783728027343756 13.9893798828125 456.4325439453125 122.021240234375" style="background: rgba(0, 0, 0, 0); --darkreader-inline-bgimage: initial; --darkreader-inline-bgcolor:rgba(0, 0, 0, 0);" data-darkreader-inline-bgimage="" data-darkreader-inline-bgcolor="" preserveAspectRatio="xMidYMid"><defs><linearGradient id="editing-outline-gradient" x1="-0.41354545764260087" x2="1.4135454576426008" y1="0.09326335692419985" y2="0.9067366430758002"><stop offset="0" stop-color="#ee4208" data-darkreader-inline-stopcolor="" style="--darkreader-inline-stopcolor:#be3506;"></stop><stop offset="1" stop-color="#4139ff" data-darkreader-inline-stopcolor="" style="--darkreader-inline-stopcolor:#0700aa;"></stop></linearGradient><filter id="editing-outline" x="-100%" y="-100%" width="300%" height="300%"><feMorphology in="SourceGraphic" operator="dilate" radius="1" result="outline"></feMorphology><feComposite operator="out" in="outline" in2="SourceAlpha"></feComposite></filter></defs><g filter="url(#editing-outline)"><g transform="translate(88.88000345230103, 103.21718788146973)"><path d="M6.21-31.17L6.21-31.17L6.21-31.17Q4.03-32.83 4.03-36.38L4.03-36.38L4.03-36.38Q4.03-39.94 6.37-41.79L6.37-41.79L6.37-41.79Q8.70-43.65 12.74-43.65L12.74-43.65L12.74-43.65Q15.30-43.65 21.38-42.75L21.38-42.75L25.73-42.11L25.73-42.11Q27.90-41.86 30.18-41.86L30.18-41.86L30.18-41.86Q32.45-41.86 33.98-42.82L33.98-42.82L33.98-42.82Q36.29-40.77 36.29-37.82L36.29-37.82L36.29-37.82Q36.29-34.88 33.66-32.77L33.66-32.77L33.66-32.77Q30.98-30.53 27.52-30.53L27.52-30.53L27.52-30.53Q25.86-30.53 23.17-30.98L23.17-30.98L23.17-30.98Q20.03-21.12 20.03-14.27L20.03-14.27L20.03-14.27Q20.03-7.42 23.49-3.84L23.49-3.84L23.49-3.84Q21.89-0.96 19.52 0.16L19.52 0.16L19.52 0.16Q17.15 1.28 13.60 1.28L13.60 1.28L13.60 1.28Q10.05 1.28 7.84-0.67L7.84-0.67L7.84-0.67Q5.63-2.62 5.63-6.66L5.63-6.66L5.63-6.66Q5.63-11.33 8.19-19.01L8.19-19.01L8.19-19.01Q10.75-26.62 14.59-32.45L14.59-32.45L14.59-32.45Q12.74-32.64 10.82-32.64L10.82-32.64L10.82-32.64Q6.85-32.64 6.21-31.17ZM45.25 1.28L45.25 1.28L45.25 1.28Q31.17 1.28 31.17-11.97L31.17-11.97L31.17-11.97Q31.17-21.38 36.35-27.46L36.35-27.46L36.35-27.46Q41.86-33.92 51.39-33.92L51.39-33.92L51.39-33.92Q58.30-33.92 61.82-30.72L61.82-30.72L61.82-30.72Q65.34-27.52 65.34-20.80L65.34-20.80L65.34-20.80Q65.34-10.56 59.84-4.61L59.84-4.61L59.84-4.61Q54.46 1.28 45.25 1.28ZM46.91-26.56L46.91-26.56L46.91-26.56Q46.14-24.83 45.54-22.24L45.54-22.24L45.54-22.24Q44.93-19.65 44.16-15.55L44.16-15.55L44.16-15.55Q43.39-11.46 43.39-6.40L43.39-6.40L43.39-6.40Q43.39-4.74 43.94-3.65L43.94-3.65L43.94-3.65Q44.48-2.56 45.95-2.56L45.95-2.56L45.95-2.56Q47.42-2.56 48.35-3.26L48.35-3.26L48.35-3.26Q49.28-3.97 49.98-5.63L49.98-5.63L49.98-5.63Q51.26-8.58 52.29-14.05L52.29-14.05L52.29-14.05Q53.31-19.52 53.41-21.89L53.41-21.89L53.41-21.89Q53.50-24.26 53.50-26.02L53.50-26.02L53.50-26.02Q53.50-27.78 52.99-28.93L52.99-28.93L52.99-28.93Q52.48-30.08 51.04-30.08L51.04-30.08L51.04-30.08Q49.60-30.08 48.64-29.18L48.64-29.18L48.64-29.18Q47.68-28.29 46.91-26.56ZM110.66-26.56L110.66-26.56L110.66-26.56Q110.66 0.70 81.09 0.70L81.09 0.70L81.09 0.70Q76.35 0.70 68.54-0.45L68.54-0.45L75.71-38.27L75.71-38.27Q76.22-40.83 76.54-42.30L76.54-42.30L76.54-42.30Q86.27-43.01 90.59-43.01L90.59-43.01L90.59-43.01Q94.91-43.01 98.88-42.11L98.88-42.11L98.88-42.11Q102.85-41.22 105.47-39.23L105.47-39.23L105.47-39.23Q110.66-35.33 110.66-26.56ZM97.47-28.93L97.47-28.93L97.47-28.93Q97.47-38.46 90.62-38.46L90.62-38.46L89.98-38.46L89.98-38.46Q89.66-38.46 89.34-38.40L89.34-38.40L82.75-4.03L82.75-4.03Q83.01-3.90 83.26-3.90L83.26-3.90L83.78-3.90L83.78-3.90Q86.14-3.90 88.61-5.38L88.61-5.38L88.61-5.38Q91.07-6.85 92.99-9.86L92.99-9.86L92.99-9.86Q97.47-16.83 97.47-28.93ZM114.88-15.62L114.88-15.62L114.88-15.62Q114.88-27.71 121.15-35.33L121.15-35.33L121.15-35.33Q127.81-43.58 139.39-43.58L139.39-43.58L139.39-43.58Q147.78-43.58 152-39.52L152-39.52L152-39.52Q156.22-35.46 156.22-26.88L156.22-26.88L156.22-26.88Q156.22-13.82 149.57-6.21L149.57-6.21L149.57-6.21Q142.98 1.28 131.90 1.28L131.90 1.28L131.90 1.28Q123.26 1.28 119.07-3.04L119.07-3.04L119.07-3.04Q114.88-7.36 114.88-15.62ZM131.71-28.86L131.71-28.86L131.71-28.86Q128.83-17.34 128.83-8.26L128.83-8.26L128.83-8.26Q128.83-6.08 129.57-4.67L129.57-4.67L129.57-4.67Q130.30-3.26 132.26-3.26L132.26-3.26L132.26-3.26Q134.21-3.26 135.42-4.19L135.42-4.19L135.42-4.19Q136.64-5.12 137.60-7.23L137.60-7.23L137.60-7.23Q139.14-10.69 140.58-18.02L140.58-18.02L140.58-18.02Q142.02-25.34 142.14-28.38L142.14-28.38L142.14-28.38Q142.27-31.42 142.27-33.73L142.27-33.73L142.27-33.73Q142.27-36.03 141.57-37.50L141.57-37.50L141.57-37.50Q140.86-38.98 138.98-38.98L138.98-38.98L138.98-38.98Q137.09-38.98 135.81-37.82L135.81-37.82L135.81-37.82Q133.44-35.65 131.71-28.86ZM159.42 7.23L159.42 7.23L159.42 7.23Q159.42 5.12 160.77 3.81L160.77 3.81L160.77 3.81Q162.11 2.50 164.16 2.50L164.16 2.50L191.10 2.50L191.10 2.50Q191.42 3.58 191.42 4.42L191.42 4.42L191.42 4.42Q191.42 6.34 190.11 7.68L190.11 7.68L190.11 7.68Q188.80 9.02 186.11 9.02L186.11 9.02L159.68 9.02L159.68 9.02Q159.42 8.19 159.42 7.23ZM206.05-1.92L206.05-1.92L206.05-1.92Q204.54-3.58 203.87-6.21L203.87-6.21L203.87-6.21Q203.20-8.83 203.20-13.12L203.20-13.12L203.20-13.12Q203.20-17.41 204.67-21.31L204.67-21.31L204.67-21.31Q206.14-25.22 208.83-28.03L208.83-28.03L208.83-28.03Q214.34-33.92 223.42-33.92L223.42-33.92L223.42-33.92Q226.69-33.92 229.06-32.83L229.06-32.83L240-33.92L235.26-8.96L235.26-8.96Q235.07-8.19 235.07-6.78L235.07-6.78L235.07-6.78Q235.07-5.38 235.94-4.48L235.94-4.48L235.94-4.48Q236.80-3.58 238.08-3.46L238.08-3.46L238.08-3.46Q237.44-1.28 235.10 0L235.10 0L235.10 0Q232.77 1.28 230.14 1.28L230.14 1.28L230.14 1.28Q227.52 1.28 225.76 0.29L225.76 0.29L225.76 0.29Q224-0.70 223.49-2.37L223.49-2.37L223.49-2.37Q222.46-0.77 220.29 0.26L220.29 0.26L220.29 0.26Q218.11 1.28 215.20 1.28L215.20 1.28L215.20 1.28Q212.29 1.28 209.92 0.51L209.92 0.51L209.92 0.51Q207.55-0.26 206.05-1.92ZM219.55-27.90L219.55-27.90L219.55-27.90Q218.82-26.75 218.18-24.80L218.18-24.80L218.18-24.80Q217.54-22.85 216.48-17.63L216.48-17.63L216.48-17.63Q215.42-12.42 215.42-8.70L215.42-8.70L215.42-8.70Q215.42-4.99 216-3.90L216-3.90L216-3.90Q216.58-2.82 217.60-2.82L217.60-2.82L217.60-2.82Q219.65-2.82 221.15-4.77L221.15-4.77L221.15-4.77Q222.66-6.72 223.23-10.18L223.23-10.18L226.62-28.93L226.62-28.93Q225.28-30.08 223.71-30.08L223.71-30.08L223.71-30.08Q222.14-30.08 221.22-29.57L221.22-29.57L221.22-29.57Q220.29-29.06 219.55-27.90ZM273.28-4.38L273.28-4.38L273.28-4.38Q270.59-1.66 266.91-0.19L266.91-0.19L266.91-0.19Q263.23 1.28 259.58 1.28L259.58 1.28L259.58 1.28Q255.94 1.28 254.66 0.64L254.66 0.64L252.67 11.52L239.68 12.80L248.51-32.64L258.94-33.73L258.11-29.31L258.11-29.31Q260.80-33.86 266.37-33.86L266.37-33.86L266.37-33.86Q272.64-33.86 275.97-29.82L275.97-29.82L275.97-29.82Q278.91-26.18 278.91-20.61L278.91-20.61L278.91-20.61Q278.91-15.04 277.44-11.07L277.44-11.07L277.44-11.07Q275.97-7.10 273.28-4.38ZM258.82-22.34L255.42-3.58L255.42-3.58Q256.77-2.43 258.43-2.43L258.43-2.43L258.43-2.43Q260.10-2.43 261.06-3.07L261.06-3.07L261.06-3.07Q262.02-3.71 262.72-4.99L262.72-4.99L262.72-4.99Q264.64-8.45 266.18-18.94L266.18-18.94L266.18-18.94Q266.62-22.02 266.62-25.02L266.62-25.02L266.62-25.02Q266.62-28.03 265.95-28.99L265.95-28.99L265.95-28.99Q265.28-29.95 264-29.95L264-29.95L264-29.95Q260.10-29.95 258.82-22.34L258.82-22.34ZM312.58-4.38L312.58-4.38L312.58-4.38Q309.89-1.66 306.21-0.19L306.21-0.19L306.21-0.19Q302.53 1.28 298.88 1.28L298.88 1.28L298.88 1.28Q295.23 1.28 293.95 0.64L293.95 0.64L291.97 11.52L278.98 12.80L287.81-32.64L298.24-33.73L297.41-29.31L297.41-29.31Q300.10-33.86 305.66-33.86L305.66-33.86L305.66-33.86Q311.94-33.86 315.26-29.82L315.26-29.82L315.26-29.82Q318.21-26.18 318.21-20.61L318.21-20.61L318.21-20.61Q318.21-15.04 316.74-11.07L316.74-11.07L316.74-11.07Q315.26-7.10 312.58-4.38ZM298.11-22.34L294.72-3.58L294.72-3.58Q296.06-2.43 297.73-2.43L297.73-2.43L297.73-2.43Q299.39-2.43 300.35-3.07L300.35-3.07L300.35-3.07Q301.31-3.71 302.02-4.99L302.02-4.99L302.02-4.99Q303.94-8.45 305.47-18.94L305.47-18.94L305.47-18.94Q305.92-22.02 305.92-25.02L305.92-25.02L305.92-25.02Q305.92-28.03 305.25-28.99L305.25-28.99L305.25-28.99Q304.58-29.95 303.30-29.95L303.30-29.95L303.30-29.95Q299.39-29.95 298.11-22.34L298.11-22.34Z" fill="url(#editing-outline-gradient)"></path></g></g><style>text {
  font-size: 64px;
  font-family: Arial Black;
  dominant-baseline: central;
  text-anchor: middle;
}</style><style class="darkreader darkreader--sync" media="screen"></style></svg>